<svg width="960" height="540" viewBox="0 0 960 540" fill="none" xmlns="http://www.w3.org/2000/svg">
  <rect width="960" height="540" rx="26" fill="url(#bg)"/>
  <rect x="66" y="72" width="828" height="92" rx="16" fill="#FFFFFF" fill-opacity="0.9"/>
  <text x="104" y="130" fill="#BE185D" font-family="Arial" font-size="34" font-weight="700">ENJOY MUSIC UNLIMITED</text>
  <rect x="66" y="196" width="250" height="276" rx="18" fill="#FFFFFF" fill-opacity="0.88"/>
  <rect x="354" y="196" width="250" height="276" rx="18" fill="#FFF7ED"/>
  <rect x="642" y="196" width="250" height="276" rx="18" fill="#FDF4FF"/>
  <text x="98" y="242" fill="#111827" font-family="Arial" font-size="28" font-weight="700">Starter</text>
  <text x="386" y="242" fill="#111827" font-family="Arial" font-size="28" font-weight="700">Pro</text>
  <text x="674" y="242" fill="#111827" font-family="Arial" font-size="28" font-weight="700">Lifetime</text>
  <rect x="96" y="270" width="190" height="24" rx="8" fill="#FED7AA"/>
  <rect x="384" y="270" width="190" height="24" rx="8" fill="#FDBA74"/>
  <rect x="672" y="270" width="190" height="24" rx="8" fill="#F9A8D4"/>
  <rect x="96" y="320" width="190" height="18" rx="7" fill="#E5E7EB"/>
  <rect x="96" y="350" width="190" height="18" rx="7" fill="#E5E7EB"/>
  <rect x="384" y="320" width="190" height="18" rx="7" fill="#E5E7EB"/>
  <rect x="384" y="350" width="190" height="18" rx="7" fill="#E5E7EB"/>
  <rect x="672" y="320" width="190" height="18" rx="7" fill="#E5E7EB"/>
  <rect x="672" y="350" width="190" height="18" rx="7" fill="#E5E7EB"/>
  <defs>
    <linearGradient id="bg" x1="20" y1="6" x2="940" y2="532" gradientUnits="userSpaceOnUse">
      <stop stop-color="#FFE4E6"/>
      <stop offset="0.5" stop-color="#FEF3C7"/>
      <stop offset="1" stop-color="#E0F2FE"/>
    </linearGradient>
  </defs>
</svg>
